<?xml version="1.0" encoding="iso-8859-1"?>
<!-- Generator: Adobe Illustrator 19.0.0, SVG Export Plug-In . SVG Version: 6.00 Build 0)  -->
<svg version="1.1" id="Capa_1" xmlns="http://www.w3.org/2000/svg" xmlns:xlink="http://www.w3.org/1999/xlink" x="0px" y="0px"
	 viewBox="0 0 512 512" style="enable-background:new 0 0 512 512;" xml:space="preserve">
<circle style="fill:#B9EAFF;" cx="256" cy="256" r="256"/>
<path style="fill:#35CCFF;" d="M512,256c0-9.861-0.577-19.585-1.662-29.156L408.186,124.693L103.814,201.9l137.242,137.242
	l-137.242,54.746L219.296,509.37c11.989,1.722,24.24,2.63,36.704,2.63C397.385,512,512,397.385,512,256z"/>
<rect x="103.81" y="124.69" style="fill:#333333;" width="304.37" height="77.21"/>
<rect x="255.67" y="124.69" style="fill:#1A1A1A;" width="152.52" height="77.21"/>
<rect x="353.99" y="149.19" style="fill:#8CC63F;" width="28.21" height="28.21"/>
<rect x="314.83" y="149.19" style="fill:#FFDC00;" width="28.21" height="28.21"/>
<rect x="103.81" y="217.4" style="fill:#333333;" width="304.37" height="77.21"/>
<rect x="255.67" y="217.4" style="fill:#1A1A1A;" width="152.52" height="77.21"/>
<rect x="353.99" y="241.9" style="fill:#8CC63F;" width="28.21" height="28.21"/>
<rect x="314.83" y="241.9" style="fill:#FFDC00;" width="28.21" height="28.21"/>
<rect x="103.81" y="310.1" style="fill:#333333;" width="304.37" height="77.21"/>
<rect x="255.67" y="310.1" style="fill:#1A1A1A;" width="152.52" height="77.21"/>
<rect x="353.99" y="334.6" style="fill:#8CC63F;" width="28.21" height="28.21"/>
<rect x="314.83" y="334.6" style="fill:#FFDC00;" width="28.21" height="28.21"/>
<circle style="fill:#39B54A;" cx="172.53" cy="334.31" r="90.94"/>
<path style="fill:#009245;" d="M172.526,243.365c-0.287,0-0.573,0.008-0.859,0.011v181.867c0.287,0.003,0.572,0.011,0.859,0.011
	c50.227,0,90.944-40.717,90.944-90.944C263.47,284.082,222.753,243.365,172.526,243.365z"/>
<polygon style="fill:#FFFFFF;" points="152.566,388.562 108.872,344.869 125.469,328.273 152.566,355.371 219.583,288.354 
	236.18,304.95 "/>
<polygon style="fill:#E0E0E0;" points="219.583,288.354 171.667,336.271 171.667,369.462 236.18,304.949 "/>
<g>
</g>
<g>
</g>
<g>
</g>
<g>
</g>
<g>
</g>
<g>
</g>
<g>
</g>
<g>
</g>
<g>
</g>
<g>
</g>
<g>
</g>
<g>
</g>
<g>
</g>
<g>
</g>
<g>
</g>
</svg>
