<?xml version="1.0" encoding="iso-8859-1"?>
<!-- Generator: Adobe Illustrator 19.0.0, SVG Export Plug-In . SVG Version: 6.00 Build 0)  -->
<svg version="1.1" id="Layer_1" xmlns="http://www.w3.org/2000/svg" xmlns:xlink="http://www.w3.org/1999/xlink" x="0px" y="0px"
	 viewBox="0 0 512.002 512.002" style="enable-background:new 0 0 512.002 512.002;" xml:space="preserve">
<circle style="fill:#E6F3FF;" cx="256.001" cy="256" r="256"/>
<path style="fill:#CFDBE6;" d="M511.254,275.685L372.597,137.028l-21.987,4.839l-89.655-89.762l-2.174,32.718l-39.25,63.881H145.33
	l-6.896,54.629l24.455,24.455h-17.56l-6.896,60.878l48.619,48.619l-21.32,100.181l73.762,73.99
	c5.458,0.348,10.959,0.545,16.505,0.545C390.762,512,501.202,407.873,511.254,275.685z"/>
<path style="fill:#FC6F58;" d="M348.154,431.65l-42.667-284.444c-0.097-0.64-0.302-1.234-0.557-1.8
	c0.138-1.327-0.102-2.705-0.8-3.963c-1.829-3.291-5.975-4.477-9.266-2.648l-4.57,2.539h-67.293l-4.57-2.539
	c-3.293-1.829-7.439-0.641-9.266,2.648c-0.348,0.628-0.578,1.284-0.71,1.951c-1.002,1.01-1.715,2.315-1.939,3.812L163.849,431.65
	c-0.564,3.768,2.031,7.278,5.796,7.844c3.213,0.486,6.223-1.345,7.396-4.229c0.153-0.079,0.309-0.148,0.459-0.241l79.15-49.19
	l78.021,48.487c0.76,3.084,3.513,5.249,6.658,5.249c0.34,0,0.684-0.026,1.033-0.078C346.125,438.929,348.719,435.419,348.154,431.65
	z M204.353,254.597l37.757,28.843l-47.53,36.307L204.353,254.597z M236.853,171.024l-21.78,12.1l3.351-22.338L236.853,171.024z
	 M293.679,161.447l3.134,20.892l-20.37-11.316L293.679,161.447z M303.472,226.733l-24.795-11.807l21.488-10.233L303.472,226.733z
	 M278.374,194.091l-21.726,10.345l-21.726-10.345l21.726-12.071L278.374,194.091z M211.924,204.119l22.695,10.807l-26.186,12.471
	L211.924,204.119z M218.814,243.433l37.833-18.015l37.833,18.015l-37.833,28.901L218.814,243.433z M307.784,255.483l9.471,63.148
	l-46.07-35.192L307.784,255.483z M265.47,155.126l-8.821,4.901l-8.821-4.901H265.47z M180.58,413.089l10.226-68.174l49.735,30.91
	L180.58,413.089z M205.204,333.843l51.445-39.298l51.445,39.298l-51.445,31.972L205.204,333.843z M321.308,345.65l9.983,66.551
	l-58.535-36.378L321.308,345.65z"/>
<path style="fill:#F1543F;" d="M348.154,431.65l-42.667-284.444c-0.097-0.64-0.302-1.234-0.557-1.8
	c0.138-1.327-0.102-2.705-0.8-3.963c-1.829-3.291-5.975-4.477-9.266-2.648l-4.57,2.539h-34.868v13.791h10.043l-8.821,4.901
	l-1.221-0.679V182.7l1.221-0.679l21.726,12.071l-21.726,10.345l-1.221-0.581v22.144l1.221-0.581l37.833,18.015l-37.833,28.901
	l-1.221-0.933v24.076l1.221-0.933l51.445,39.298l-51.445,31.972l-1.221-0.759v21.538l1.221-0.759l78.021,48.487
	c0.76,3.084,3.513,5.249,6.658,5.249c0.34,0,0.684-0.026,1.033-0.078C346.125,438.929,348.719,435.419,348.154,431.65z
	 M276.443,171.024l17.236-9.576l3.134,20.892L276.443,171.024z M278.677,214.926l21.488-10.233l3.306,22.04L278.677,214.926z
	 M271.187,283.439l36.597-27.957l9.471,63.148L271.187,283.439z M272.755,375.825l48.552-30.174l9.983,66.551L272.755,375.825z"/>
<g>
	<path style="fill:#F4A200;" d="M160.755,180.224h-14.941c-3.808,0-6.896,3.088-6.896,6.896v8.544c0,3.808,3.088,6.896,6.896,6.896
		h14.941c3.808,0,6.896-3.088,6.896-6.896v-8.544C167.651,183.312,164.563,180.224,160.755,180.224z"/>
	<path style="fill:#F4A200;" d="M160.755,154.29h-14.941c-3.808,0-6.896,3.088-6.896,6.896v8.544c0,3.808,3.088,6.896,6.896,6.896
		h14.941c3.808,0,6.896-3.088,6.896-6.896v-8.544C167.651,157.377,164.563,154.29,160.755,154.29z"/>
	<path style="fill:#F4A200;" d="M366.188,180.224h-14.941c-3.808,0-6.896,3.088-6.896,6.896v8.544c0,3.808,3.088,6.896,6.896,6.896
		h14.941c3.808,0,6.896-3.088,6.896-6.896v-8.544C373.083,183.312,369.996,180.224,366.188,180.224z"/>
	<path style="fill:#F4A200;" d="M366.188,154.29h-14.941c-3.808,0-6.896,3.088-6.896,6.896v8.544c0,3.808,3.088,6.896,6.896,6.896
		h14.941c3.808,0,6.896-3.088,6.896-6.896v-8.544C373.083,157.377,369.996,154.29,366.188,154.29z"/>
	<path style="fill:#F4A200;" d="M160.755,266.419h-14.941c-3.808,0-6.896,3.088-6.896,6.896v8.544c0,3.808,3.088,6.896,6.896,6.896
		h14.941c3.808,0,6.896-3.088,6.896-6.896v-8.544C167.651,269.507,164.563,266.419,160.755,266.419z"/>
	<path style="fill:#F4A200;" d="M160.755,240.485h-14.941c-3.808,0-6.896,3.088-6.896,6.896v8.544c0,3.808,3.088,6.896,6.896,6.896
		h14.941c3.808,0,6.896-3.088,6.896-6.896v-8.544C167.651,243.572,164.563,240.485,160.755,240.485z"/>
	<path style="fill:#F4A200;" d="M366.188,266.419h-14.941c-3.808,0-6.896,3.088-6.896,6.896v8.544c0,3.808,3.088,6.896,6.896,6.896
		h14.941c3.808,0,6.896-3.088,6.896-6.896v-8.544C373.083,269.507,369.996,266.419,366.188,266.419z"/>
	<path style="fill:#F4A200;" d="M366.188,240.485h-14.941c-3.808,0-6.896,3.088-6.896,6.896v8.544c0,3.808,3.088,6.896,6.896,6.896
		h14.941c3.808,0,6.896-3.088,6.896-6.896v-8.544C373.083,243.572,369.996,240.485,366.188,240.485z"/>
</g>
<path style="fill:#FC6F58;" d="M290.796,139.535l-27.9-65.943V56.889c0-3.808-3.088-6.896-6.896-6.896s-6.896,3.088-6.896,6.896
	v16.703l-27.9,65.943c-0.9,2.129-0.676,4.568,0.603,6.497c1.276,1.927,3.436,3.086,5.747,3.086h56.889
	c2.312,0,4.472-1.158,5.747-3.086C291.472,144.105,291.696,141.665,290.796,139.535z M237.962,135.327l18.039-42.639l18.041,42.639
	H237.962z"/>
<g>
	<path style="fill:#F1543F;" d="M290.796,139.535l-27.9-65.943V56.889c0-3.808-3.088-6.896-6.896-6.896
		c-0.197,0-0.383,0.041-0.574,0.059v43.994l0.574-1.358l18.041,42.639h-18.615v13.791h29.019c2.312,0,4.472-1.158,5.747-3.086
		C291.472,144.105,291.696,141.665,290.796,139.535z"/>
	<path style="fill:#F1543F;" d="M368.055,206.007c-3.808,0-6.896-3.088-6.896-6.896v-49.993H150.843v49.993
		c0,3.808-3.088,6.896-6.896,6.896s-6.896-3.088-6.896-6.896v-56.889c0-3.808,3.088-6.896,6.896-6.896h224.108
		c3.808,0,6.896,3.088,6.896,6.896v56.889C374.95,202.919,371.863,206.007,368.055,206.007z"/>
	<path style="fill:#F1543F;" d="M368.055,291.34c-3.808,0-6.896-3.088-6.896-6.896v-49.993H150.843v49.993
		c0,3.808-3.088,6.896-6.896,6.896s-6.896-3.088-6.896-6.896v-56.889c0-3.808,3.088-6.896,6.896-6.896h224.108
		c3.808,0,6.896,3.088,6.896,6.896v56.889C374.95,288.253,371.863,291.34,368.055,291.34z"/>
</g>
<g>
	<path style="fill:#C1321F;" d="M368.055,135.327H255.427v13.791h105.732v49.993c0,3.808,3.087,6.896,6.896,6.896
		s6.896-3.088,6.896-6.896v-56.889C374.95,138.414,371.863,135.327,368.055,135.327z"/>
	<path style="fill:#C1321F;" d="M368.055,220.66H255.427v13.791h105.732v49.993c0,3.808,3.087,6.896,6.896,6.896
		s6.896-3.088,6.896-6.896v-56.889C374.95,223.747,371.863,220.66,368.055,220.66z"/>
</g>
<g>
</g>
<g>
</g>
<g>
</g>
<g>
</g>
<g>
</g>
<g>
</g>
<g>
</g>
<g>
</g>
<g>
</g>
<g>
</g>
<g>
</g>
<g>
</g>
<g>
</g>
<g>
</g>
<g>
</g>
</svg>
