<svg viewBox="0 0 512 512" xmlns="http://www.w3.org/2000/svg"><path d="m512 256c0 141.386719-114.613281 256-256 256s-256-114.613281-256-256 114.613281-256 256-256 256 114.613281 256 256zm0 0" fill="#ff9a00"/><path d="m512 256c0-23.59375-3.207031-46.433594-9.183594-68.128906l-118.855468-118.855469h-12.648438v19.386719l-40.320312-40.085938-9.605469-8.222656-119.800781 140.027344-21.105469-21.097656c-.890625-1.039063-1.957031-1.941407-3.210938-2.707032-2.203125-1.347656-4.871093-2.019531-8.007812-2.019531-2.332031 0-4.425781.398437-6.285157 1.199219-1.859374.804687-3.445312 1.878906-4.753906 3.226562-1.3125 1.347656-2.316406 2.914063-3.007812 4.703125-.695313 1.785157-1.039063 3.679688-1.039063 5.683594 0 1.96875.355469 3.855469 1.066407 5.65625.710937 1.804687 1.722656 3.390625 3.03125 4.757813l23.578124 23.664062-119.066406 139.167969 27.449219 26.667969-1.925781 2.25 24.34375 24.5h-24.34375v12.648437l92.285156 92.28125c23.839844 7.339844 49.160156 11.296875 75.40625 11.296875 141.386719 0 256-114.613281 256-256zm0 0" fill="#e67500"/><path d="m346.90625 69.015625v302.257813h-258.597656zm0 0" fill="#00e8f2"/><path d="m346.902344 69.011719v302.261719h-124.601563v-156.621094zm0 0" fill="#00b7be"/><path d="m371.3125 69.015625h12.648438v302.257813h-12.648438zm0 0" fill="#fff5cb"/><path d="m88.308594 395.773438h258.597656v12.648437h-258.597656zm0 0" fill="#fff"/><path d="m222.300781 395.773438h124.601563v12.648437h-124.601563zm0 0" fill="#fff5cb"/><path d="m62.796875 342.359375 258.597656-302.277344 9.609375 8.222657-258.597656 302.277343zm0 0" fill="#fff"/><path d="m330.992188 48.3125-108.691407 127.039062v-19.449218l99.082031-115.808594zm0 0" fill="#fff5cb"/><path d="m219.027344 452.371094c-1.386719 0-2.679688-.230469-3.882813-.683594-1.203125-.457031-2.242187-1.09375-3.113281-1.914062-.875-.820313-1.558594-1.777344-2.050781-2.871094-.492188-1.089844-.738281-2.292969-.738281-3.605469 0-1.347656.300781-2.597656.902343-3.746094.601563-1.148437 1.4375-2.121093 2.511719-2.921875 1.074219-.804687 2.359375-1.433594 3.855469-1.886718 1.496093-.457032 3.132812-.683594 4.921875-.683594 1.273437 0 2.519531.109375 3.742187.328125 1.222657.21875 2.304688.527343 3.253907.929687v-1.640625c0-1.894531-.539063-3.351562-1.613282-4.375-1.074218-1.019531-2.667968-1.53125-4.78125-1.53125-1.53125 0-3.027344.277344-4.484375.820313-1.457031.546875-2.949219 1.351562-4.480469 2.40625l-2.242187-4.648438c3.679687-2.4375 7.652344-3.660156 11.917969-3.660156 4.117187 0 7.3125 1.011719 9.59375 3.035156 2.273437 2.019532 3.414062 4.945313 3.414062 8.769532v8.910156c0 .769531.136719 1.3125.410156 1.640625.273438.328125.71875.511719 1.339844.546875v6.230468c-1.238281.257813-2.316406.382813-3.226562.382813-1.382813 0-2.449219-.308594-3.195313-.925781-.746093-.621094-1.214843-1.441406-1.394531-2.460938l-.164062-1.585937c-1.277344 1.675781-2.824219 2.953125-4.644532 3.828125-1.824218.875-3.773437 1.3125-5.851562 1.3125zm2.078125-5.359375c1.238281 0 2.414062-.21875 3.523437-.65625 1.113282-.433594 1.976563-1.019531 2.597656-1.746094.800782-.621094 1.203126-1.3125 1.203126-2.078125v-3.28125c-.875-.328125-1.824219-.589844-2.84375-.789062-1.019532-.203126-2.003907-.304688-2.949219-.304688-1.898438 0-3.445313.429688-4.648438 1.285156-1.203125.859375-1.804687 1.941406-1.804687 3.253906 0 1.238282.472656 2.269532 1.421875 3.085938.949219.820312 2.113281 1.230469 3.5 1.230469zm0 0" fill="#3c3b41"/><path d="m236.160156 445.042969c-.269531-.320313-.40625-.871094-.40625-1.640625v-8.910156c0-3.820313-1.140625-6.75-3.410156-8.769532-2.28125-2.019531-5.480469-3.03125-9.601562-3.03125-.148438 0-.289063 0-.441407.011719v5.078125c1.980469.039062 3.492188.539062 4.511719 1.519531 1.078125 1.019531 1.621094 2.480469 1.621094 4.371094v1.640625c-.953125-.402344-2.042969-.710938-3.261719-.929688-.941406-.160156-1.890625-.261718-2.871094-.300781v4.089844c.109375-.011719.222657-.011719.332031-.011719.949219 0 1.929688.101563 2.949219.300782 1.019531.199218 1.96875.460937 2.851563.792968v3.277344c0 .761719-.402344 1.460938-1.210938 2.082031-.621094.730469-1.480468 1.308594-2.589844 1.75-.75.289063-1.519531.480469-2.332031.578125v5.039063c.890625-.21875 1.742188-.519531 2.570313-.917969 1.832031-.878906 3.371094-2.152344 4.652344-3.832031l.160156 1.582031c.1875 1.03125.648437 1.847656 1.398437 2.46875.738281.609375 1.808594.921875 3.199219.921875.910156 0 1.980469-.121094 3.222656-.382813v-6.226562c-.621094-.042969-1.0625-.222656-1.34375-.550781zm0 0" fill="#2a2a2c"/><path d="m417.964844 244.484375c-2.1875 0-4.136719-.492187-5.851563-1.476563-1.710937-.984374-3.058593-2.332031-4.042969-4.046874v4.976562h-6.394531v-39.90625h7.324219v16.289062c1.019531-1.746093 2.359375-3.105468 4.019531-4.070312 1.65625-.964844 3.597657-1.449219 5.820313-1.449219 1.859375 0 3.554687.402344 5.082031 1.203125 1.53125.800782 2.851563 1.878906 3.964844 3.226563 1.109375 1.347656 1.96875 2.933593 2.566406 4.753906.601563 1.824219.902344 3.738281.902344 5.742187 0 2.074219-.335938 4.007813-1.011719 5.792969-.671875 1.785157-1.613281 3.34375-2.8125 4.671875-1.203125 1.332032-2.625 2.378906-4.265625 3.144532-1.640625.765624-3.40625 1.148437-5.300781 1.148437zm-2.023438-6.230469c1.164063 0 2.242188-.230468 3.222656-.683594.984376-.457031 1.824219-1.066406 2.515626-1.832031.691406-.765625 1.230468-1.65625 1.613281-2.679687.382812-1.019532.574219-2.113282.574219-3.277344 0-1.167969-.183594-2.277344-.546876-3.335938-.363281-1.054687-.882812-1.984374-1.558593-2.789062-.671875-.800781-1.464844-1.4375-2.375-1.910156-.914063-.472656-1.914063-.710938-3.007813-.710938-1.640625 0-3.109375.535156-4.402344 1.613282-1.292968 1.074218-2.285156 2.394531-2.976562 3.960937v6.832031c.253906.730469.628906 1.386719 1.121094 1.96875.492187.585938 1.046875 1.085938 1.664062 1.503906.621094.417969 1.292969.746094 2.023438.984376.730468.234374 1.441406.355468 2.132812.355468zm0 0" fill="#2a2a2c"/><path d="m154.175781 169.109375c0-2.003906.34375-3.898437 1.039063-5.683594.691406-1.785156 1.691406-3.355469 3.007812-4.703125 1.308594-1.347656 2.894532-2.421875 4.753906-3.226562 1.859376-.800782 3.953126-1.199219 6.285157-1.199219 3.136719 0 5.804687.671875 8.007812 2.019531 2.207031 1.351563 3.855469 3.117188 4.949219 5.304688l-7.160156 2.1875c-.621094-1.058594-1.441406-1.867188-2.460938-2.433594-1.019531-.5625-2.152344-.847656-3.390625-.847656-1.054687 0-2.039062.210937-2.949219.628906-.914062.417969-1.707031 1.003906-2.378906 1.75-.675781.746094-1.203125 1.648438-1.585937 2.703125-.382813 1.058594-.574219 2.226563-.574219 3.5 0 1.277344.199219 2.441406.601562 3.5.402344 1.054687.9375 1.964844 1.613282 2.730469.671875.765625 1.464844 1.359375 2.378906 1.777344.910156.417968 1.875.628906 2.898438.628906 1.308593 0 2.519531-.328125 3.632812-.984375 1.109375-.65625 1.886719-1.457031 2.324219-2.40625l7.160156 2.1875c-.984375 2.1875-2.605469 3.972656-4.863281 5.355469-2.261719 1.386718-4.976563 2.078124-8.148438 2.078124-2.332031 0-4.425781-.402343-6.285156-1.203124-1.859375-.800782-3.441406-1.882813-4.753906-3.25-1.3125-1.367188-2.324219-2.953126-3.035156-4.757813-.710938-1.800781-1.066407-3.6875-1.066407-5.65625zm0 0" fill="#3c3b41"/></svg>